<svg xmlns="http://www.w3.org/2000/svg" xmlns:xlink="http://www.w3.org/1999/xlink" width="1920" zoomAndPan="magnify" viewBox="0 0 1440 809.999993" height="1080" preserveAspectRatio="xMidYMid meet" version="1.0"><defs><g/><clipPath id="8d710bc885"><rect x="0" width="455" y="0" height="301"/></clipPath></defs><g transform="matrix(1, 0, 0, 1, 695, 254)"><g clip-path="url(#8d710bc885)"><g fill="#d06907" fill-opacity="1"><g transform="translate(0.736885, 239.764946)"><g><path d="M 80.5 -130.210938 C 92.035156 -130.210938 102.308594 -127.320312 111.308594 -121.539062 C 120.285156 -115.777344 127.402344 -107.921875 132.664062 -97.972656 C 137.917969 -88.039062 140.542969 -76.527344 140.542969 -63.4375 C 140.542969 -50.351562 137.917969 -38.765625 132.667969 -28.675781 C 127.40625 -18.5625 120.332031 -10.625 111.4375 -4.863281 C 102.511719 0.921875 92.441406 3.816406 81.222656 3.816406 C 74.945312 3.816406 68.996094 2.820312 63.371094 0.835938 C 57.761719 -1.140625 52.808594 -3.742188 48.511719 -6.96875 C 44.21875 -10.1875 40.703125 -13.621094 37.96875 -17.269531 C 35.175781 -20.992188 33.4375 -24.492188 32.746094 -27.773438 L 32.480469 -29.042969 L 42.503906 -33.867188 L 42.503906 35.804688 C 42.503906 39.785156 41.179688 43.097656 38.535156 45.742188 C 35.890625 48.390625 32.65625 49.710938 28.835938 49.710938 C 24.84375 49.710938 21.5625 48.382812 18.996094 45.722656 C 16.445312 43.078125 15.167969 39.773438 15.167969 35.804688 L 15.167969 -114.621094 C 15.167969 -118.421875 16.4375 -121.679688 18.976562 -124.398438 C 21.546875 -127.152344 24.832031 -128.53125 28.835938 -128.53125 C 32.667969 -128.53125 35.90625 -127.160156 38.554688 -124.421875 C 41.1875 -121.699219 42.503906 -118.433594 42.503906 -114.621094 L 42.503906 -95.21875 L 35.195312 -99.328125 L 35.375 -100.460938 C 35.898438 -103.789062 37.53125 -107.203125 40.269531 -110.710938 C 42.925781 -114.117188 46.277344 -117.304688 50.324219 -120.277344 C 54.382812 -123.261719 59.011719 -125.660156 64.214844 -127.476562 C 69.4375 -129.300781 74.867188 -130.210938 80.5 -130.210938 Z M 80.5 -126.90625 C 75.238281 -126.90625 70.175781 -126.058594 65.304688 -124.355469 C 60.414062 -122.648438 56.074219 -120.402344 52.28125 -117.617188 C 48.480469 -114.824219 45.34375 -111.84375 42.875 -108.679688 C 40.484375 -105.621094 39.074219 -102.710938 38.636719 -99.945312 L 37.007812 -100.203125 L 37.816406 -101.644531 L 41.660156 -99.480469 L 40.851562 -98.042969 L 39.199219 -98.042969 L 39.199219 -114.621094 C 39.199219 -117.542969 38.191406 -120.042969 36.179688 -122.125 C 34.179688 -124.191406 31.734375 -125.226562 28.835938 -125.226562 C 25.789062 -125.226562 23.308594 -124.199219 21.394531 -122.144531 C 19.445312 -120.058594 18.472656 -117.550781 18.472656 -114.621094 L 18.472656 35.804688 C 18.472656 38.882812 19.441406 41.425781 21.375 43.429688 C 23.292969 45.414062 25.777344 46.40625 28.835938 46.40625 C 31.742188 46.40625 34.199219 45.40625 36.199219 43.40625 C 38.199219 41.40625 39.199219 38.871094 39.199219 35.804688 L 39.199219 -31.238281 L 40.851562 -31.238281 L 41.566406 -29.75 L 35.078125 -26.625 L 34.363281 -28.113281 L 35.980469 -28.457031 C 36.570312 -25.648438 38.113281 -22.582031 40.609375 -19.253906 C 43.160156 -15.855469 46.453125 -12.640625 50.492188 -9.613281 C 54.523438 -6.589844 59.183594 -4.144531 64.46875 -2.277344 C 69.738281 -0.417969 75.320312 0.511719 81.222656 0.511719 C 91.789062 0.511719 101.261719 -2.203125 109.640625 -7.632812 C 118.046875 -13.082031 124.746094 -20.605469 129.738281 -30.199219 C 134.738281 -39.8125 137.242188 -50.890625 137.242188 -63.4375 C 137.242188 -75.980469 134.742188 -86.976562 129.742188 -96.429688 C 124.75 -105.863281 118.011719 -113.308594 109.523438 -118.757812 C 101.066406 -124.191406 91.390625 -126.90625 80.5 -126.90625 Z M 77.855469 -104.800781 C 70.5 -104.800781 64.113281 -103.007812 58.703125 -99.425781 C 53.261719 -95.824219 49.003906 -90.953125 45.933594 -84.808594 C 42.84375 -78.632812 41.300781 -71.507812 41.300781 -63.4375 C 41.300781 -55.519531 42.847656 -48.351562 45.945312 -41.929688 C 49.015625 -35.554688 53.269531 -30.566406 58.703125 -26.96875 C 64.113281 -23.386719 70.5 -21.597656 77.855469 -21.597656 C 85.050781 -21.597656 91.3125 -23.386719 96.640625 -26.964844 C 102.003906 -30.566406 106.261719 -35.558594 109.417969 -41.941406 C 112.585938 -48.359375 114.171875 -55.527344 114.171875 -63.4375 C 114.171875 -71.347656 112.589844 -78.425781 109.421875 -84.679688 C 106.269531 -90.910156 102.007812 -95.828125 96.640625 -99.433594 C 91.3125 -103.011719 85.050781 -104.800781 77.855469 -104.800781 Z M 77.855469 -108.105469 C 85.722656 -108.105469 92.597656 -106.128906 98.480469 -102.175781 C 104.328125 -98.25 108.957031 -92.917969 112.371094 -86.171875 C 115.773438 -79.449219 117.476562 -71.871094 117.476562 -63.4375 C 117.476562 -55.011719 115.777344 -47.359375 112.378906 -40.480469 C 108.964844 -33.566406 104.332031 -28.148438 98.480469 -24.21875 C 92.597656 -20.269531 85.722656 -18.292969 77.855469 -18.292969 C 69.835938 -18.292969 62.84375 -20.265625 56.878906 -24.214844 C 50.941406 -28.144531 46.300781 -33.574219 42.96875 -40.492188 C 39.652344 -47.367188 37.996094 -55.015625 37.996094 -63.4375 C 37.996094 -72.027344 39.65625 -79.644531 42.976562 -86.285156 C 46.3125 -92.957031 50.949219 -98.253906 56.878906 -102.183594 C 62.84375 -106.128906 69.835938 -108.105469 77.855469 -108.105469 Z M 77.855469 -108.105469 "/></g></g></g><g fill="#d06907" fill-opacity="1"><g transform="translate(139.388675, 239.764946)"><g><path d="M 41.0625 -12.253906 C 41.0625 -8.285156 39.785156 -4.980469 37.234375 -2.335938 C 34.664062 0.324219 31.386719 1.652344 27.394531 1.652344 C 23.574219 1.652344 20.339844 0.328125 17.695312 -2.316406 C 15.050781 -4.960938 13.726562 -8.273438 13.726562 -12.253906 L 13.726562 -115.101562 C 13.726562 -119.082031 15.050781 -122.398438 17.695312 -125.042969 C 20.339844 -127.6875 23.574219 -129.011719 27.394531 -129.011719 C 31.386719 -129.011719 34.664062 -127.679688 37.234375 -125.019531 C 39.785156 -122.378906 41.0625 -119.070312 41.0625 -115.101562 Z M 37.757812 -12.253906 L 37.757812 -115.101562 C 37.757812 -118.183594 36.789062 -120.722656 34.855469 -122.726562 C 32.9375 -124.710938 30.449219 -125.707031 27.394531 -125.707031 C 24.484375 -125.707031 22.03125 -124.707031 20.03125 -122.707031 C 18.03125 -120.707031 17.03125 -118.171875 17.03125 -115.101562 L 17.03125 -12.253906 C 17.03125 -9.1875 18.03125 -6.652344 20.03125 -4.652344 C 22.03125 -2.652344 24.484375 -1.652344 27.394531 -1.652344 C 30.449219 -1.652344 32.9375 -2.644531 34.855469 -4.632812 C 36.789062 -6.632812 37.757812 -9.175781 37.757812 -12.253906 Z M 27.152344 -141.566406 C 22.117188 -141.566406 18.410156 -142.527344 16.023438 -144.457031 C 13.53125 -146.46875 12.285156 -149.742188 12.285156 -154.273438 L 12.285156 -158.117188 C 12.285156 -162.6875 13.636719 -165.941406 16.339844 -167.871094 C 18.871094 -169.679688 22.554688 -170.582031 27.394531 -170.582031 C 32.589844 -170.582031 36.378906 -169.617188 38.765625 -167.691406 C 41.257812 -165.679688 42.503906 -162.488281 42.503906 -158.117188 L 42.503906 -154.273438 C 42.503906 -149.550781 41.199219 -146.226562 38.589844 -144.292969 C 36.136719 -142.476562 32.324219 -141.566406 27.152344 -141.566406 Z M 27.152344 -144.871094 C 31.597656 -144.871094 34.753906 -145.5625 36.625 -146.949219 C 38.339844 -148.21875 39.199219 -150.660156 39.199219 -154.273438 L 39.199219 -158.117188 C 39.199219 -161.433594 38.363281 -163.769531 36.6875 -165.121094 C 34.910156 -166.558594 31.8125 -167.277344 27.394531 -167.277344 C 23.261719 -167.277344 20.21875 -166.578125 18.261719 -165.183594 C 16.480469 -163.910156 15.589844 -161.554688 15.589844 -158.117188 L 15.589844 -154.273438 C 15.589844 -150.792969 16.425781 -148.378906 18.097656 -147.027344 C 19.878906 -145.589844 22.898438 -144.871094 27.152344 -144.871094 Z M 27.152344 -144.871094 "/></g></g></g><g fill="#d06907" fill-opacity="1"><g transform="translate(183.843692, 239.764946)"><g><path d="M 81.941406 -130.933594 C 93.683594 -130.933594 102.828125 -128.457031 109.371094 -123.507812 C 115.898438 -118.570312 120.457031 -111.96875 123.046875 -103.703125 C 125.582031 -95.609375 126.847656 -86.597656 126.847656 -76.65625 L 126.847656 -12.253906 C 126.847656 -8.273438 125.523438 -4.960938 122.878906 -2.316406 C 120.234375 0.328125 117 1.652344 113.179688 1.652344 C 109.1875 1.652344 105.910156 0.324219 103.339844 -2.335938 C 100.789062 -4.980469 99.511719 -8.285156 99.511719 -12.253906 L 99.511719 -76.414062 C 99.511719 -81.996094 98.742188 -86.976562 97.203125 -91.367188 C 95.71875 -95.605469 93.152344 -99.023438 89.511719 -101.625 C 85.875 -104.222656 80.707031 -105.519531 74.011719 -105.519531 C 67.734375 -105.519531 62.238281 -104.191406 57.523438 -101.527344 C 52.804688 -98.867188 49.117188 -95.371094 46.464844 -91.050781 C 43.824219 -86.75 42.503906 -81.871094 42.503906 -76.414062 L 42.503906 -12.253906 C 42.503906 -8.273438 41.179688 -4.960938 38.535156 -2.316406 C 35.890625 0.328125 32.65625 1.652344 28.835938 1.652344 C 24.84375 1.652344 21.5625 0.324219 18.996094 -2.335938 C 16.445312 -4.980469 15.167969 -8.285156 15.167969 -12.253906 L 15.167969 -114.140625 C 15.167969 -118.109375 16.445312 -121.417969 18.996094 -124.058594 C 21.5625 -126.71875 24.84375 -128.050781 28.835938 -128.050781 C 32.65625 -128.050781 35.890625 -126.726562 38.535156 -124.082031 C 41.179688 -121.433594 42.503906 -118.121094 42.503906 -114.140625 L 42.503906 -99.714844 L 33.6875 -94.816406 L 34.949219 -98.78125 C 36.132812 -102.496094 38.183594 -106.230469 41.109375 -109.988281 C 43.996094 -113.703125 47.496094 -117.164062 51.609375 -120.371094 C 55.75 -123.597656 60.382812 -126.164062 65.507812 -128.066406 C 70.660156 -129.976562 76.136719 -130.933594 81.941406 -130.933594 Z M 81.941406 -127.628906 C 76.53125 -127.628906 71.4375 -126.742188 66.65625 -124.96875 C 61.851562 -123.183594 57.511719 -120.785156 53.640625 -117.765625 C 49.746094 -114.726562 46.4375 -111.457031 43.714844 -107.960938 C 41.035156 -104.511719 39.160156 -101.117188 38.101562 -97.78125 L 36.523438 -98.28125 L 35.722656 -99.726562 L 40.046875 -102.128906 L 40.851562 -100.683594 L 39.199219 -100.683594 L 39.199219 -114.140625 C 39.199219 -117.210938 38.199219 -119.742188 36.199219 -121.746094 C 34.199219 -123.746094 31.742188 -124.746094 28.835938 -124.746094 C 25.777344 -124.746094 23.292969 -123.75 21.375 -121.765625 C 19.441406 -119.761719 18.472656 -117.222656 18.472656 -114.140625 L 18.472656 -12.253906 C 18.472656 -9.175781 19.441406 -6.632812 21.375 -4.632812 C 23.292969 -2.644531 25.777344 -1.652344 28.835938 -1.652344 C 31.742188 -1.652344 34.199219 -2.652344 36.199219 -4.652344 C 38.199219 -6.652344 39.199219 -9.1875 39.199219 -12.253906 L 39.199219 -76.414062 C 39.199219 -82.492188 40.683594 -87.949219 43.648438 -92.777344 C 46.601562 -97.585938 50.683594 -101.464844 55.898438 -104.40625 C 61.117188 -107.351562 67.15625 -108.824219 74.011719 -108.824219 C 81.414062 -108.824219 87.21875 -107.320312 91.433594 -104.3125 C 95.640625 -101.304688 98.605469 -97.355469 100.320312 -92.460938 C 101.984375 -87.71875 102.816406 -82.371094 102.816406 -76.414062 L 102.816406 -12.253906 C 102.816406 -9.175781 103.785156 -6.632812 105.71875 -4.632812 C 107.636719 -2.644531 110.125 -1.652344 113.179688 -1.652344 C 116.089844 -1.652344 118.542969 -2.652344 120.542969 -4.652344 C 122.542969 -6.652344 123.542969 -9.1875 123.542969 -12.253906 L 123.542969 -76.65625 C 123.542969 -86.257812 122.328125 -94.945312 119.894531 -102.714844 C 117.515625 -110.308594 113.34375 -116.359375 107.378906 -120.875 C 101.425781 -125.378906 92.945312 -127.628906 81.941406 -127.628906 Z M 81.941406 -127.628906 "/></g></g></g><g fill="#d06907" fill-opacity="1"><g transform="translate(315.046255, 239.764946)"><g><path d="M 120.390625 -129.972656 C 124.382812 -129.972656 127.660156 -128.640625 130.230469 -125.984375 C 132.78125 -123.339844 134.054688 -120.035156 134.054688 -116.0625 L 134.054688 -12.253906 C 134.054688 -8.285156 132.78125 -4.980469 130.230469 -2.335938 C 127.660156 0.324219 124.382812 1.652344 120.390625 1.652344 C 116.570312 1.652344 113.335938 0.328125 110.691406 -2.316406 C 108.046875 -4.960938 106.722656 -8.273438 106.722656 -12.253906 L 106.722656 -31.460938 L 115.074219 -30.269531 L 115.074219 -28.835938 C 115.074219 -25.621094 113.820312 -22.113281 111.316406 -18.316406 C 108.902344 -14.652344 105.625 -11.125 101.492188 -7.734375 C 97.355469 -4.339844 92.484375 -1.53125 86.875 0.695312 C 81.234375 2.933594 75.183594 4.054688 68.726562 4.054688 C 57.347656 4.054688 47.117188 1.125 38.03125 -4.738281 C 28.976562 -10.585938 21.816406 -18.605469 16.554688 -28.800781 C 11.304688 -38.96875 8.679688 -50.515625 8.679688 -63.4375 C 8.679688 -76.683594 11.304688 -88.351562 16.558594 -98.445312 C 21.820312 -108.554688 28.9375 -116.496094 37.914062 -122.261719 C 46.917969 -128.042969 56.949219 -130.933594 68.003906 -130.933594 C 75.097656 -130.933594 81.660156 -129.773438 87.699219 -127.457031 C 93.710938 -125.152344 98.949219 -122.183594 103.410156 -118.546875 C 107.886719 -114.898438 111.339844 -111.027344 113.761719 -106.933594 C 116.238281 -102.75 117.476562 -98.742188 117.476562 -94.917969 L 117.476562 -93.417969 L 106.722656 -92.378906 L 106.722656 -116.0625 C 106.722656 -119.875 108.039062 -123.140625 110.671875 -125.863281 C 113.320312 -128.601562 116.558594 -129.972656 120.390625 -129.972656 Z M 120.390625 -126.667969 C 117.492188 -126.667969 115.042969 -125.632812 113.046875 -123.566406 C 111.035156 -121.484375 110.027344 -118.984375 110.027344 -116.0625 L 110.027344 -94.195312 L 108.375 -94.195312 L 108.214844 -95.839844 L 115.664062 -96.5625 L 115.824219 -94.917969 L 114.171875 -94.917969 C 114.171875 -98.140625 113.085938 -101.585938 110.917969 -105.25 C 108.695312 -109.007812 105.496094 -112.585938 101.324219 -115.984375 C 97.136719 -119.398438 92.199219 -122.195312 86.515625 -124.375 C 80.859375 -126.542969 74.6875 -127.628906 68.003906 -127.628906 C 57.59375 -127.628906 48.160156 -124.914062 39.699219 -119.480469 C 31.214844 -114.03125 24.480469 -106.511719 19.488281 -96.917969 C 14.484375 -87.304688 11.984375 -76.144531 11.984375 -63.4375 C 11.984375 -51.050781 14.488281 -40.007812 19.492188 -30.3125 C 24.480469 -20.644531 31.261719 -13.042969 39.824219 -7.515625 C 48.363281 -2.003906 57.996094 0.75 68.726562 0.75 C 74.761719 0.75 80.40625 -0.292969 85.65625 -2.375 C 90.945312 -4.476562 95.523438 -7.113281 99.398438 -10.289062 C 103.273438 -13.464844 106.328125 -16.75 108.558594 -20.132812 C 110.699219 -23.382812 111.769531 -26.28125 111.769531 -28.835938 L 113.421875 -28.835938 L 113.1875 -27.199219 L 108.140625 -27.921875 L 108.375 -29.558594 L 110.027344 -29.558594 L 110.027344 -12.253906 C 110.027344 -9.1875 111.027344 -6.652344 113.027344 -4.652344 C 115.027344 -2.652344 117.480469 -1.652344 120.390625 -1.652344 C 123.445312 -1.652344 125.933594 -2.644531 127.851562 -4.632812 C 129.785156 -6.632812 130.753906 -9.175781 130.753906 -12.253906 L 130.753906 -116.0625 C 130.753906 -119.144531 129.785156 -121.683594 127.851562 -123.6875 C 125.933594 -125.675781 123.445312 -126.667969 120.390625 -126.667969 Z M 71.367188 -21.355469 C 78.566406 -21.355469 84.90625 -23.1875 90.398438 -26.847656 C 95.914062 -30.523438 100.207031 -35.550781 103.28125 -41.929688 C 106.375 -48.351562 107.925781 -55.519531 107.925781 -63.4375 C 107.925781 -71.515625 106.378906 -78.722656 103.285156 -85.0625 C 100.210938 -91.363281 95.914062 -96.351562 90.398438 -100.03125 C 84.90625 -103.691406 78.566406 -105.519531 71.367188 -105.519531 C 64.335938 -105.519531 58.117188 -103.691406 52.710938 -100.039062 C 47.261719 -96.355469 42.960938 -91.359375 39.804688 -85.046875 C 36.636719 -78.710938 35.054688 -71.507812 35.054688 -63.4375 C 35.054688 -55.527344 36.636719 -48.359375 39.808594 -41.941406 C 42.964844 -35.554688 47.265625 -30.523438 52.710938 -26.839844 C 58.117188 -23.183594 64.335938 -21.355469 71.367188 -21.355469 Z M 71.367188 -18.050781 C 63.660156 -18.050781 56.824219 -20.070312 50.859375 -24.101562 C 44.929688 -28.109375 40.257812 -33.570312 36.847656 -40.480469 C 33.449219 -47.359375 31.75 -55.011719 31.75 -63.4375 C 31.75 -72.027344 33.449219 -79.726562 36.851562 -86.523438 C 40.261719 -93.351562 44.933594 -98.769531 50.859375 -102.773438 C 56.824219 -106.808594 63.660156 -108.824219 71.367188 -108.824219 C 79.230469 -108.824219 86.183594 -106.808594 92.230469 -102.78125 C 98.246094 -98.769531 102.921875 -93.347656 106.253906 -86.511719 C 109.570312 -79.714844 111.226562 -72.023438 111.226562 -63.4375 C 111.226562 -55.015625 109.570312 -47.367188 106.257812 -40.492188 C 102.921875 -33.574219 98.246094 -28.109375 92.230469 -24.097656 C 86.183594 -20.066406 79.230469 -18.050781 71.367188 -18.050781 Z M 71.367188 -18.050781 "/></g></g></g><g fill="#fa9900" fill-opacity="1"><g transform="translate(0.736885, 239.764946)"><g><path d="M 80.5 -128.5625 C 91.707031 -128.5625 101.675781 -125.753906 110.40625 -120.140625 C 119.144531 -114.535156 126.078125 -106.882812 131.203125 -97.1875 C 136.328125 -87.5 138.890625 -76.25 138.890625 -63.4375 C 138.890625 -50.625 136.328125 -39.289062 131.203125 -29.4375 C 126.078125 -19.582031 119.1875 -11.851562 110.53125 -6.25 C 101.882812 -0.644531 92.113281 2.15625 81.21875 2.15625 C 75.132812 2.15625 69.367188 1.195312 63.921875 -0.71875 C 58.472656 -2.644531 53.664062 -5.164062 49.5 -8.28125 C 45.332031 -11.40625 41.925781 -14.726562 39.28125 -18.25 C 36.644531 -21.78125 35.003906 -25.066406 34.359375 -28.109375 L 40.84375 -31.234375 L 40.84375 35.796875 C 40.84375 39.328125 39.679688 42.253906 37.359375 44.578125 C 35.035156 46.898438 32.191406 48.0625 28.828125 48.0625 C 25.304688 48.0625 22.425781 46.898438 20.1875 44.578125 C 17.945312 42.253906 16.828125 39.328125 16.828125 35.796875 L 16.828125 -114.625 C 16.828125 -117.988281 17.945312 -120.867188 20.1875 -123.265625 C 22.425781 -125.671875 25.304688 -126.875 28.828125 -126.875 C 32.191406 -126.875 35.035156 -125.671875 37.359375 -123.265625 C 39.679688 -120.867188 40.84375 -117.988281 40.84375 -114.625 L 40.84375 -98.046875 L 37 -100.203125 C 37.488281 -103.242188 39.015625 -106.40625 41.578125 -109.6875 C 44.140625 -112.976562 47.378906 -116.0625 51.296875 -118.9375 C 55.222656 -121.820312 59.707031 -124.144531 64.75 -125.90625 C 69.800781 -127.675781 75.050781 -128.5625 80.5 -128.5625 Z M 77.859375 -106.453125 C 70.171875 -106.453125 63.484375 -104.566406 57.796875 -100.796875 C 52.109375 -97.035156 47.660156 -91.953125 44.453125 -85.546875 C 41.253906 -79.140625 39.65625 -71.769531 39.65625 -63.4375 C 39.65625 -55.269531 41.253906 -47.859375 44.453125 -41.203125 C 47.660156 -34.554688 52.109375 -29.347656 57.796875 -25.578125 C 63.484375 -21.816406 70.171875 -19.9375 77.859375 -19.9375 C 85.390625 -19.9375 91.957031 -21.816406 97.5625 -25.578125 C 103.164062 -29.347656 107.609375 -34.554688 110.890625 -41.203125 C 114.179688 -47.859375 115.828125 -55.269531 115.828125 -63.4375 C 115.828125 -71.601562 114.179688 -78.929688 110.890625 -85.421875 C 107.609375 -91.910156 103.164062 -97.035156 97.5625 -100.796875 C 91.957031 -104.566406 85.390625 -106.453125 77.859375 -106.453125 Z M 77.859375 -106.453125 "/></g></g></g><g fill="#fa9900" fill-opacity="1"><g transform="translate(139.388675, 239.764946)"><g><path d="M 39.40625 -12.25 C 39.40625 -8.726562 38.285156 -5.804688 36.046875 -3.484375 C 33.804688 -1.160156 30.921875 0 27.390625 0 C 24.023438 0 21.179688 -1.160156 18.859375 -3.484375 C 16.535156 -5.804688 15.375 -8.726562 15.375 -12.25 L 15.375 -115.109375 C 15.375 -118.628906 16.535156 -121.550781 18.859375 -123.875 C 21.179688 -126.195312 24.023438 -127.359375 27.390625 -127.359375 C 30.921875 -127.359375 33.804688 -126.195312 36.046875 -123.875 C 38.285156 -121.550781 39.40625 -118.628906 39.40625 -115.109375 Z M 27.15625 -143.21875 C 22.507812 -143.21875 19.144531 -144.054688 17.0625 -145.734375 C 14.976562 -147.421875 13.9375 -150.265625 13.9375 -154.265625 L 13.9375 -158.109375 C 13.9375 -162.117188 15.054688 -164.921875 17.296875 -166.515625 C 19.546875 -168.117188 22.910156 -168.921875 27.390625 -168.921875 C 32.203125 -168.921875 35.644531 -168.078125 37.71875 -166.390625 C 39.800781 -164.710938 40.84375 -161.953125 40.84375 -158.109375 L 40.84375 -154.265625 C 40.84375 -150.097656 39.757812 -147.210938 37.59375 -145.609375 C 35.4375 -144.015625 31.957031 -143.21875 27.15625 -143.21875 Z M 27.15625 -143.21875 "/></g></g></g><g fill="#fa9900" fill-opacity="1"><g transform="translate(183.843692, 239.764946)"><g><path d="M 81.9375 -129.28125 C 93.3125 -129.28125 102.125 -126.914062 108.375 -122.1875 C 114.625 -117.46875 118.988281 -111.140625 121.46875 -103.203125 C 123.945312 -95.273438 125.1875 -86.425781 125.1875 -76.65625 L 125.1875 -12.25 C 125.1875 -8.726562 124.023438 -5.804688 121.703125 -3.484375 C 119.378906 -1.160156 116.539062 0 113.1875 0 C 109.65625 0 106.769531 -1.160156 104.53125 -3.484375 C 102.289062 -5.804688 101.171875 -8.726562 101.171875 -12.25 L 101.171875 -76.421875 C 101.171875 -82.179688 100.367188 -87.34375 98.765625 -91.90625 C 97.160156 -96.476562 94.394531 -100.164062 90.46875 -102.96875 C 86.539062 -105.769531 81.054688 -107.171875 74.015625 -107.171875 C 67.441406 -107.171875 61.671875 -105.769531 56.703125 -102.96875 C 51.742188 -100.164062 47.859375 -96.476562 45.046875 -91.90625 C 42.242188 -87.34375 40.84375 -82.179688 40.84375 -76.421875 L 40.84375 -12.25 C 40.84375 -8.726562 39.679688 -5.804688 37.359375 -3.484375 C 35.035156 -1.160156 32.191406 0 28.828125 0 C 25.304688 0 22.425781 -1.160156 20.1875 -3.484375 C 17.945312 -5.804688 16.828125 -8.726562 16.828125 -12.25 L 16.828125 -114.140625 C 16.828125 -117.660156 17.945312 -120.582031 20.1875 -122.90625 C 22.425781 -125.226562 25.304688 -126.390625 28.828125 -126.390625 C 32.191406 -126.390625 35.035156 -125.226562 37.359375 -122.90625 C 39.679688 -120.582031 40.84375 -117.660156 40.84375 -114.140625 L 40.84375 -100.6875 L 36.53125 -98.28125 C 37.644531 -101.800781 39.601562 -105.363281 42.40625 -108.96875 C 45.21875 -112.570312 48.625 -115.9375 52.625 -119.0625 C 56.625 -122.1875 61.109375 -124.671875 66.078125 -126.515625 C 71.046875 -128.359375 76.332031 -129.28125 81.9375 -129.28125 Z M 81.9375 -129.28125 "/></g></g></g><g fill="#fa9900" fill-opacity="1"><g transform="translate(315.046255, 239.764946)"><g><path d="M 120.390625 -128.3125 C 123.910156 -128.3125 126.789062 -127.148438 129.03125 -124.828125 C 131.28125 -122.503906 132.40625 -119.582031 132.40625 -116.0625 L 132.40625 -12.25 C 132.40625 -8.726562 131.28125 -5.804688 129.03125 -3.484375 C 126.789062 -1.160156 123.910156 0 120.390625 0 C 117.023438 0 114.179688 -1.160156 111.859375 -3.484375 C 109.535156 -5.804688 108.375 -8.726562 108.375 -12.25 L 108.375 -29.5625 L 113.421875 -28.828125 C 113.421875 -25.953125 112.257812 -22.75 109.9375 -19.21875 C 107.613281 -15.695312 104.445312 -12.289062 100.4375 -9 C 96.4375 -5.71875 91.710938 -2.992188 86.265625 -0.828125 C 80.816406 1.328125 74.96875 2.40625 68.71875 2.40625 C 57.664062 2.40625 47.734375 -0.4375 38.921875 -6.125 C 30.117188 -11.8125 23.148438 -19.617188 18.015625 -29.546875 C 12.890625 -39.484375 10.328125 -50.78125 10.328125 -63.4375 C 10.328125 -76.414062 12.890625 -87.828125 18.015625 -97.671875 C 23.148438 -107.523438 30.082031 -115.253906 38.8125 -120.859375 C 47.539062 -126.472656 57.269531 -129.28125 68 -129.28125 C 74.894531 -129.28125 81.265625 -128.15625 87.109375 -125.90625 C 92.953125 -123.664062 98.035156 -120.785156 102.359375 -117.265625 C 106.691406 -113.742188 110.019531 -110.019531 112.34375 -106.09375 C 114.664062 -102.164062 115.828125 -98.441406 115.828125 -94.921875 L 108.375 -94.203125 L 108.375 -116.0625 C 108.375 -119.425781 109.535156 -122.304688 111.859375 -124.703125 C 114.179688 -127.109375 117.023438 -128.3125 120.390625 -128.3125 Z M 71.375 -19.703125 C 78.894531 -19.703125 85.539062 -21.625 91.3125 -25.46875 C 97.082031 -29.3125 101.566406 -34.554688 104.765625 -41.203125 C 107.972656 -47.859375 109.578125 -55.269531 109.578125 -63.4375 C 109.578125 -71.769531 107.972656 -79.21875 104.765625 -85.78125 C 101.566406 -92.351562 97.082031 -97.5625 91.3125 -101.40625 C 85.539062 -105.25 78.894531 -107.171875 71.375 -107.171875 C 64 -107.171875 57.46875 -105.25 51.78125 -101.40625 C 46.09375 -97.5625 41.609375 -92.351562 38.328125 -85.78125 C 35.046875 -79.21875 33.40625 -71.769531 33.40625 -63.4375 C 33.40625 -55.269531 35.046875 -47.859375 38.328125 -41.203125 C 41.609375 -34.554688 46.09375 -29.3125 51.78125 -25.46875 C 57.46875 -21.625 64 -19.703125 71.375 -19.703125 Z M 71.375 -19.703125 "/></g></g></g></g></g><path fill="#f48c03" d="M 462.449219 412.84375 C 466.898438 415.671875 471.628906 418.125 476.128906 420.878906 C 481.53125 424.183594 486.792969 427.722656 492.089844 431.195312 C 495.160156 433.210938 500.492188 436.023438 503.023438 438.40625 C 504.007812 440.511719 503.441406 445.777344 503.636719 448.410156 C 504.332031 457.632812 504 466.945312 504.074219 476.1875 C 504.074219 480.207031 504.199219 484.988281 504.058594 488.953125 C 490.3125 497.589844 475.539062 504.527344 461.695312 512.953125 C 461.214844 513.246094 460.667969 513.394531 460.113281 513.335938 L 459.53125 512.972656 C 457.917969 512.109375 455.644531 510.273438 454.113281 509.121094 C 451.507812 507.140625 448.875 505.199219 446.214844 503.289062 C 441.789062 500.074219 437.34375 496.886719 432.882812 493.722656 C 431.027344 492.429688 422.3125 486.859375 421.6875 485.28125 C 421.882812 479.523438 421.707031 473.574219 422.003906 467.773438 C 422.339844 461.140625 422.527344 454.496094 423.027344 447.871094 C 423.296875 444.289062 422.984375 439.40625 423.546875 435.980469 C 424.984375 435.003906 427.078125 433.96875 428.652344 433.179688 C 436.269531 429.375 443.480469 424.863281 450.679688 420.335938 C 453.679688 418.453125 456.898438 416.640625 459.777344 414.585938 C 461.023438 413.996094 461.34375 413.589844 462.449219 412.84375 Z M 462.449219 412.84375 " fill-opacity="1" fill-rule="nonzero"/><path fill="#feaa01" d="M 462.449219 412.84375 C 466.898438 415.671875 471.628906 418.125 476.128906 420.878906 C 481.53125 424.183594 486.792969 427.722656 492.089844 431.195312 C 495.160156 433.210938 500.492188 436.023438 503.023438 438.40625 C 501.746094 439.917969 496.265625 442.050781 494.117188 443.160156 C 488.691406 445.960938 483.230469 448.757812 477.832031 451.621094 C 473.714844 453.855469 465.421875 459.039062 460.382812 461.945312 L 460.015625 462.125 C 456.082031 465.683594 426.210938 484.191406 421.6875 485.28125 C 421.882812 479.523438 421.707031 473.574219 422.003906 467.773438 C 422.339844 461.140625 422.527344 454.496094 423.027344 447.871094 C 423.296875 444.289062 422.984375 439.40625 423.546875 435.980469 C 424.984375 435.003906 427.078125 433.96875 428.652344 433.179688 C 436.269531 429.375 443.480469 424.863281 450.679688 420.335938 C 453.679688 418.453125 456.898438 416.640625 459.777344 414.585938 C 461.023438 413.996094 461.34375 413.589844 462.449219 412.84375 Z M 462.449219 412.84375 " fill-opacity="1" fill-rule="nonzero"/><path fill="#feaa01" d="M 421.6875 485.28125 C 421.882812 479.523438 421.707031 473.574219 422.003906 467.773438 C 422.339844 461.140625 422.527344 454.496094 423.027344 447.871094 C 423.296875 444.289062 422.984375 439.40625 423.546875 435.980469 C 423.621094 436.222656 423.71875 436.53125 423.832031 436.894531 C 428.855469 441.421875 435.957031 445.65625 441.410156 449.371094 C 447.777344 453.710938 454.003906 457.671875 460.015625 462.125 C 456.082031 465.683594 426.210938 484.191406 421.6875 485.28125 Z M 421.6875 485.28125 " fill-opacity="1" fill-rule="nonzero"/><path fill="#fec004" d="M 462.296875 412.800781 C 459.851562 427.152344 460.585938 445.277344 460.292969 458.257812 C 460.265625 459.472656 460.195312 460.746094 460.382812 461.945312 L 460.015625 462.125 C 454.003906 457.671875 447.777344 453.710938 441.410156 449.371094 C 435.957031 445.65625 428.855469 441.421875 423.832031 436.894531 C 423.71875 436.53125 423.621094 436.222656 423.546875 435.980469 C 424.984375 435.003906 427.078125 433.96875 428.652344 433.179688 C 436.269531 429.375 443.480469 424.863281 450.679688 420.335938 C 453.679688 418.453125 459.417969 414.855469 462.296875 412.800781 Z M 462.296875 412.800781 " fill-opacity="1" fill-rule="nonzero"/><path fill="#fb9801" d="M 460.382812 461.945312 C 460.183594 462.859375 460.339844 469.777344 460.34375 471.320312 L 460.363281 497.59375 C 460.363281 499.488281 460.648438 511.800781 459.933594 512.773438 L 459.53125 512.972656 C 457.917969 512.109375 455.644531 510.273438 454.113281 509.121094 C 451.507812 507.140625 448.875 505.199219 446.214844 503.289062 C 441.789062 500.074219 437.34375 496.886719 432.882812 493.722656 C 431.027344 492.429688 422.3125 486.859375 421.6875 485.28125 C 426.210938 484.191406 456.082031 465.683594 460.015625 462.125 Z M 460.382812 461.945312 " fill-opacity="1" fill-rule="nonzero"/><path fill="#feaa01" d="M 511.402344 488.980469 C 511.277344 482.960938 511.078125 441.667969 512.066406 439.015625 C 512.269531 438.472656 512.75 438.164062 513.21875 437.839844 C 518.273438 434.371094 523.644531 431.269531 528.890625 428.09375 L 546.796875 417.183594 C 548.730469 416.027344 551.261719 414.367188 553.308594 413.273438 C 553.765625 413.03125 554.164062 413.347656 554.523438 413.570312 C 562.992188 419.742188 572.097656 424.839844 580.882812 430.519531 C 583.164062 431.992188 590.160156 435.484375 591.183594 437.386719 C 591.125 440.464844 591.660156 445.054688 591.832031 448.363281 L 593.066406 472.335938 C 593.296875 476.265625 592.84375 482.226562 593.15625 485.660156 C 592.203125 486.703125 588.832031 488.792969 587.507812 489.671875 C 584.300781 491.78125 581.117188 493.917969 577.949219 496.082031 C 572.839844 499.621094 567.789062 503.242188 562.792969 506.941406 C 561.429688 507.957031 555.90625 512.285156 554.84375 512.832031 C 551.128906 511.269531 545.394531 507.894531 541.601562 505.90625 C 535.21875 502.632812 528.90625 499.226562 522.667969 495.6875 C 519.265625 493.796875 514.507812 491.277344 511.402344 488.980469 Z M 511.402344 488.980469 " fill-opacity="1" fill-rule="nonzero"/><path fill="#ec7801" d="M 591.183594 437.386719 C 591.125 440.464844 591.660156 445.054688 591.832031 448.363281 L 593.066406 472.335938 C 593.296875 476.265625 592.84375 482.226562 593.15625 485.660156 C 580.570312 477.722656 566.371094 469.496094 554.714844 462.871094 C 554.9375 461.980469 554.914062 462.023438 555.59375 461.402344 C 556.210938 461.0625 558.808594 459.164062 559.535156 458.660156 C 562.484375 456.589844 565.457031 454.546875 568.449219 452.539062 C 572.664062 449.707031 576.90625 446.914062 581.171875 444.164062 C 583.816406 442.46875 588.863281 439.375 591.183594 437.386719 Z M 591.183594 437.386719 " fill-opacity="1" fill-rule="nonzero"/><path fill="#e26c01" d="M 554.714844 462.871094 C 562.574219 467.320312 570.121094 471.714844 578.074219 476.164062 C 580.027344 477.257812 592.527344 484.523438 593.15625 485.660156 C 592.203125 486.703125 588.832031 488.792969 587.507812 489.671875 C 584.300781 491.78125 581.117188 493.917969 577.949219 496.082031 C 572.839844 499.621094 567.789062 503.242188 562.792969 506.941406 C 561.429688 507.957031 555.90625 512.285156 554.84375 512.832031 Z M 554.714844 462.871094 " fill-opacity="1" fill-rule="nonzero"/><path fill="#f48801" d="M 554.523438 413.570312 C 562.992188 419.742188 572.097656 424.839844 580.882812 430.519531 C 583.164062 431.992188 590.160156 435.484375 591.183594 437.386719 C 588.863281 439.375 583.816406 442.46875 581.171875 444.164062 C 576.90625 446.914062 572.664062 449.707031 568.449219 452.539062 C 565.457031 454.546875 562.484375 456.589844 559.535156 458.660156 C 558.808594 459.164062 555.367188 462.8125 554.75 463.148438 C 554.757812 459.597656 554.898438 454.25 554.894531 451.273438 L 554.8125 426.769531 C 554.808594 423.648438 555 416.191406 554.523438 413.570312 Z M 554.523438 413.570312 " fill-opacity="1" fill-rule="nonzero"/><path fill="#f07c01" d="M 507.582031 494.417969 C 511.777344 497.757812 517.816406 500.503906 522.570312 503.164062 C 527.871094 506.132812 533.078125 509.085938 538.464844 511.9375 C 542.265625 513.949219 546.609375 516.472656 550.160156 518.941406 C 550.671875 519.296875 551.128906 519.890625 551.125 520.527344 C 551.101562 524.0625 550.292969 528.136719 549.863281 531.636719 L 547.273438 551.207031 C 546.75 555.234375 546.5 560.214844 545.265625 563.984375 C 538.773438 568.601562 531.429688 573.066406 524.941406 577.773438 C 523.378906 578.90625 508.144531 590.273438 507.78125 590.339844 L 507.539062 590.273438 C 500.710938 585.515625 493.953125 580.363281 487.039062 575.570312 L 477.183594 568.800781 C 474.824219 567.175781 471.964844 565.320312 469.9375 563.335938 C 469.003906 561.214844 467.582031 547.558594 467.195312 544.5625 L 465.511719 532.03125 C 465.015625 528.617188 464.164062 523.046875 464.136719 519.636719 C 467.710938 516.925781 473.867188 513.691406 477.8125 511.589844 L 491.699219 504.042969 C 495.996094 501.691406 501.058594 498.238281 504.957031 496.195312 C 505.90625 495.503906 506.589844 495.039062 507.582031 494.417969 Z M 507.582031 494.417969 " fill-opacity="1" fill-rule="nonzero"/><path fill="#fb9801" d="M 504.957031 496.195312 L 505.375 496.09375 C 506.042969 495.921875 506.53125 495.691406 507.15625 495.417969 C 507.738281 497.421875 507.679688 503.851562 507.695312 506.183594 L 507.820312 532.90625 C 507.839844 536.46875 507.53125 542.105469 507.664062 545.695312 C 504.621094 546.84375 501.472656 548.402344 498.320312 550.078125 C 493.042969 552.839844 475.089844 563.542969 469.9375 563.335938 C 469.003906 561.214844 467.582031 547.558594 467.195312 544.5625 L 465.511719 532.03125 C 465.015625 528.617188 464.164062 523.046875 464.136719 519.636719 C 467.710938 516.925781 473.867188 513.691406 477.8125 511.589844 L 491.699219 504.042969 C 495.996094 501.691406 501.058594 498.238281 504.957031 496.195312 Z M 504.957031 496.195312 " fill-opacity="1" fill-rule="nonzero"/><path fill="#f48801" d="M 469.9375 563.335938 C 475.089844 563.542969 493.042969 552.839844 498.320312 550.078125 C 500.878906 548.738281 504.941406 546.671875 507.664062 545.734375 C 507.757812 550.476562 508.242188 588.269531 507.539062 590.273438 C 500.710938 585.515625 493.953125 580.363281 487.039062 575.570312 L 477.183594 568.800781 C 474.824219 567.175781 471.964844 565.320312 469.9375 563.335938 Z M 469.9375 563.335938 " fill-opacity="1" fill-rule="nonzero"/><path fill="#fb9801" d="M 507.089844 357.078125 C 510.429688 357.296875 532.992188 368.03125 537.703125 370.070312 C 539.445312 370.828125 544.339844 373.472656 546.085938 373.886719 C 547.109375 374.597656 547.441406 374.964844 547.59375 376.277344 C 547.894531 378.824219 548.058594 382 548.25 384.53125 C 548.617188 389.402344 550.882812 403.8125 549.335938 408.050781 C 545.699219 410.878906 509.589844 432.191406 507.699219 432.457031 C 505.949219 431.761719 502.71875 429.65625 501.015625 428.601562 C 497.675781 426.519531 494.320312 424.460938 490.949219 422.425781 C 485.582031 419.222656 480.101562 416.203125 474.75 412.96875 C 473.417969 412.164062 472.015625 411.410156 470.8125 410.417969 C 469.117188 409.714844 467.433594 408.40625 466 407.28125 C 464.320312 403.449219 466.796875 389.871094 467.234375 385.308594 C 467.554688 381.988281 467.851562 378.042969 468.285156 374.699219 C 469.609375 373.847656 475.984375 371.28125 477.910156 370.40625 C 487.460938 366.070312 497.496094 361.171875 507.089844 357.078125 Z M 507.089844 357.078125 " fill-opacity="1" fill-rule="nonzero"/><path fill="#feaa01" d="M 468.285156 374.699219 C 469.609375 373.847656 475.984375 371.28125 477.910156 370.40625 C 487.460938 366.070312 497.496094 361.171875 507.089844 357.078125 C 508.195312 358.550781 507.792969 366.296875 507.785156 368.558594 L 507.757812 386.261719 C 507.753906 388.421875 507.6875 390.652344 507.867188 392.808594 C 507.601562 399.207031 507.800781 412.554688 507.816406 421.664062 C 507.828125 424.707031 507.992188 429.582031 507.699219 432.457031 C 505.949219 431.761719 502.71875 429.65625 501.015625 428.601562 C 497.675781 426.519531 494.320312 424.460938 490.949219 422.425781 C 485.582031 419.222656 480.101562 416.203125 474.75 412.96875 C 473.417969 412.164062 472.015625 411.410156 470.8125 410.417969 C 469.117188 409.714844 467.433594 408.40625 466 407.28125 C 464.320312 403.449219 466.796875 389.871094 467.234375 385.308594 C 467.554688 381.988281 467.851562 378.042969 468.285156 374.699219 Z M 468.285156 374.699219 " fill-opacity="1" fill-rule="nonzero"/><path fill="#fec004" d="M 468.285156 374.699219 C 469.609375 373.847656 475.984375 371.28125 477.910156 370.40625 C 487.460938 366.070312 497.496094 361.171875 507.089844 357.078125 C 508.195312 358.550781 507.792969 366.296875 507.785156 368.558594 C 507.695312 376.65625 507.683594 387.804688 507.789062 394.050781 C 504.394531 392.644531 498.796875 390.691406 495.410156 389.246094 C 487.21875 385.699219 479.175781 381.824219 471.296875 377.625 C 469.527344 376.675781 468.832031 376.519531 468.285156 374.699219 Z M 468.285156 374.699219 " fill-opacity="1" fill-rule="nonzero"/><path fill="#fb9801" d="M 507.785156 403.226562 L 507.816406 421.664062 C 507.828125 424.707031 507.992188 429.582031 507.699219 432.457031 C 505.949219 431.761719 502.71875 429.65625 501.015625 428.601562 C 497.675781 426.519531 494.320312 424.460938 490.949219 422.425781 C 485.582031 419.222656 480.101562 416.203125 474.75 412.96875 C 473.417969 412.164062 472.015625 411.410156 470.8125 410.417969 C 471.925781 410.558594 471.527344 410.738281 472.375 411 C 474.785156 410.550781 505.953125 395.445312 507.863281 393.921875 C 507.816406 397.292969 507.804688 400.015625 507.785156 403.226562 Z M 507.785156 403.226562 " fill-opacity="1" fill-rule="nonzero"/><path fill="#f38302" d="M 544.34375 411.246094 C 530.074219 420.527344 524.4375 423.898438 507.871094 432.457031 C 507.871094 434.550781 506.636719 394.390625 507.863281 393.921875 Z M 544.34375 411.246094 " fill-opacity="1" fill-rule="nonzero"/><path fill="#feaa01" d="M 507.089844 357.078125 C 510.429688 357.296875 532.992188 368.03125 537.703125 370.070312 C 539.445312 370.828125 544.339844 373.472656 546.085938 373.886719 L 546.511719 374.917969 C 534.410156 382.835938 520.859375 387.863281 507.816406 394.007812 C 507.8125 391.820312 507.753906 388.421875 507.757812 386.261719 L 507.785156 368.558594 C 507.792969 366.296875 508.195312 358.550781 507.089844 357.078125 Z M 507.089844 357.078125 " fill-opacity="1" fill-rule="nonzero"/><path fill="#fec004" d="M 506.515625 209.597656 C 507.007812 208.734375 507.277344 208.292969 507.878906 207.503906 C 516.140625 219.882812 521.230469 230.332031 526.707031 244.003906 C 528.148438 248.457031 532.554688 265.542969 531.898438 269.757812 C 531.699219 285.710938 529.597656 301.617188 523.441406 316.421875 C 522.832031 317.890625 522.308594 319.453125 521.71875 320.953125 C 518.667969 328.6875 515.484375 336.414062 511.136719 343.53125 C 510.308594 344.882812 508.863281 347.511719 507.75 348.453125 L 507.457031 348.355469 C 507.140625 348.015625 506.296875 346.925781 506.039062 346.535156 C 497.507812 333.359375 490.9375 316.632812 486.828125 301.507812 C 485.007812 294.8125 482.527344 274.167969 483.640625 267.527344 C 483.605469 263.199219 487.585938 248.730469 489.128906 244.066406 C 490.0625 241.480469 491.429688 238.179688 492.496094 235.9375 C 495.316406 230.011719 502.609375 214.066406 506.515625 209.597656 Z M 506.515625 209.597656 " fill-opacity="1" fill-rule="nonzero"/><path fill="#f38302" d="M 507.875 291.601562 C 517.347656 286.746094 525.082031 277.320312 531.898438 269.566406 C 531.699219 285.519531 529.71875 299.691406 524.578125 315.214844 C 523.96875 316.683594 522.726562 319.859375 522.136719 321.359375 C 519.085938 329.097656 516.320312 335.566406 511.972656 342.679688 C 511.144531 344.035156 508.804688 347.796875 507.6875 348.738281 Z M 507.875 291.601562 " fill-opacity="1" fill-rule="nonzero"/><path fill="#f99102" d="M 507.695312 348.773438 C 507.382812 348.4375 506.296875 346.925781 506.039062 346.535156 C 497.507812 333.359375 490.734375 316.835938 486.621094 301.710938 C 483.988281 294.816406 483.347656 268.859375 483.332031 269.339844 C 487.066406 274.027344 491.625 279.863281 496.210938 283.742188 C 499.09375 286.179688 505.601562 289.820312 507.964844 291.414062 Z M 507.695312 348.773438 " fill-opacity="1" fill-rule="nonzero"/><path fill="#fb9801" d="M 508.105469 258.929688 C 514.613281 255.628906 522.199219 249.65625 526.707031 244.003906 C 528.148438 248.457031 532.554688 265.542969 531.898438 269.757812 C 525.082031 277.507812 517.40625 286.878906 507.933594 291.730469 L 507.796875 274.421875 C 507.753906 270.984375 507.59375 261.914062 507.90625 259.035156 Z M 508.105469 258.929688 " fill-opacity="1" fill-rule="nonzero"/><path fill="#feaa01" d="M 489.128906 244.066406 C 489.820312 246.535156 504.78125 258.421875 507.917969 259.039062 L 507.867188 270.175781 C 507.878906 277.558594 508.046875 284.160156 507.921875 291.542969 C 505.804688 290.769531 497.378906 284.863281 496 283.71875 C 491.414062 279.835938 487.0625 274.039062 483.328125 269.351562 C 483.988281 260.875 486.507812 252.480469 489.128906 244.066406 Z M 489.128906 244.066406 " fill-opacity="1" fill-rule="nonzero"/><path fill="#feaa01" d="M 507.878906 207.503906 C 516.140625 219.882812 521.230469 230.332031 526.707031 244.003906 C 522.199219 249.65625 514.425781 255.78125 507.917969 259.082031 C 507.824219 254.609375 507.789062 249.65625 507.796875 245.460938 L 507.785156 219.84375 L 507.878906 207.511719 C 507.890625 207.5 507.878906 207.503906 507.878906 207.503906 Z M 507.878906 207.503906 " fill-opacity="1" fill-rule="nonzero"/><path fill="#f48801" d="M 613.375 277.914062 C 618.855469 277.523438 623.3125 277.160156 628.546875 276.539062 C 623 280.679688 617.464844 286.421875 612.730469 291.480469 C 598.996094 306.164062 587 322.40625 573.828125 337.566406 C 573.144531 338.351562 568.605469 339.789062 567.335938 340.207031 C 552.683594 345.035156 537.558594 348.308594 522.21875 349.96875 C 520.351562 350.15625 515.75 350.863281 514.230469 350.445312 L 514.121094 350.082031 L 514.570312 349.667969 C 516.0625 346.972656 518.765625 343.519531 520.644531 340.933594 C 529.710938 328.449219 538.671875 316.15625 550.75 306.398438 C 559.746094 299.03125 571.035156 290.15625 582.042969 286.105469 C 590.054688 283.160156 604.996094 278.429688 613.375 277.914062 Z M 613.375 277.914062 " fill-opacity="1" fill-rule="nonzero"/><path fill="#eb7401" d="M 596.578125 491.375 C 598.246094 493.03125 600.152344 494.605469 601.871094 496.285156 C 605.332031 499.65625 608.472656 503.023438 611.5 506.785156 C 612.546875 508.085938 614.039062 509.632812 614.8125 511.070312 C 613.023438 520.074219 605.28125 541.070312 600.25 548.40625 C 594.070312 555.523438 588.492188 562.359375 581.214844 568.410156 C 578.679688 570.515625 576.320312 572.90625 573.726562 574.988281 C 573.039062 574.679688 572.207031 574.339844 571.605469 573.917969 C 569.296875 573.136719 554.929688 563.253906 552.859375 561.351562 C 553.277344 557.652344 554.402344 552.433594 554.9375 548.496094 C 556.292969 538.527344 557.199219 528.664062 558.265625 518.65625 C 570.871094 509.273438 584.683594 499.347656 596.578125 491.375 Z M 596.578125 491.375 " fill-opacity="1" fill-rule="nonzero"/><path fill="#e26c01" d="M 584.828125 538.332031 L 585.125 538.523438 C 589.445312 542.0625 595.617188 544.875 600.25 548.40625 C 594.070312 555.523438 588.492188 562.359375 581.214844 568.410156 C 578.679688 570.515625 576.320312 572.90625 573.726562 574.988281 C 573.039062 574.679688 572.207031 574.339844 571.605469 573.917969 C 569.296875 573.136719 554.929688 563.253906 552.859375 561.351562 C 554.496094 560.753906 581.792969 541.046875 584.117188 538.84375 Z M 584.828125 538.332031 " fill-opacity="1" fill-rule="nonzero"/><path fill="#d96515" d="M 585.125 538.523438 C 589.445312 542.0625 595.617188 544.875 600.25 548.40625 C 594.070312 555.523438 588.492188 562.359375 581.214844 568.410156 C 578.679688 570.515625 576.320312 572.90625 573.726562 574.988281 C 573.039062 574.679688 572.207031 574.339844 571.605469 573.917969 C 572.308594 573.976562 572.933594 574.171875 573.617188 574.34375 C 575.144531 573.289062 583.628906 539.957031 585.125 538.523438 Z M 585.125 538.523438 " fill-opacity="1" fill-rule="nonzero"/><path fill="#f07c01" d="M 596.640625 491.375 C 601.558594 495.015625 610.996094 505.929688 614.8125 510.878906 C 608.628906 517.996094 600.398438 525.679688 593.121094 531.730469 C 590.585938 533.835938 587.730469 536.25 585.132812 538.332031 Z M 596.640625 491.375 " fill-opacity="1" fill-rule="nonzero"/><path fill="#f48801" d="M 558.566406 518.449219 C 564.691406 514.402344 590.101562 494.417969 596.753906 491.375 L 585.132812 538.332031 Z M 558.566406 518.449219 " fill-opacity="1" fill-rule="nonzero"/><path fill="#fec004" d="M 387.058594 276.515625 C 392.484375 277.3125 397.964844 277.453125 403.367188 278.199219 C 413.082031 279.539062 430.089844 284.179688 438.722656 288.652344 C 442.4375 290.03125 447.160156 293.15625 450.476562 295.347656 C 465.953125 305.582031 478.816406 318.808594 489.617188 333.816406 C 490.746094 335.390625 493.699219 338.957031 494.351562 340.429688 C 495.464844 341.644531 500.839844 349.210938 501.667969 350.695312 C 483.851562 349.761719 465.210938 345.574219 448.15625 340.246094 C 445.8125 339.511719 442.773438 338.597656 440.863281 337.117188 C 439.46875 335.152344 436.460938 331.683594 434.839844 329.671875 C 429.828125 323.433594 424.777344 317.230469 419.679688 311.0625 C 418.914062 310.421875 414.382812 304.753906 413.355469 303.570312 C 406.144531 295.242188 396.070312 282.703125 387.058594 276.515625 Z M 387.058594 276.515625 " fill-opacity="1" fill-rule="nonzero"/><path fill="#fb9801" d="M 438.722656 288.652344 C 442.4375 290.03125 447.160156 293.15625 450.476562 295.347656 C 472.519531 310.160156 489.632812 328.882812 501.480469 350.613281 L 468.015625 328.609375 L 446.972656 313.605469 C 443.464844 305.371094 440.121094 296.585938 438.722656 288.652344 Z M 438.722656 288.652344 " fill-opacity="1" fill-rule="nonzero"/><path fill="#f98a02" d="M 419.527344 311.011719 C 429.355469 313.605469 436.179688 314.78125 446.167969 313.105469 C 450.820312 315.964844 456.210938 320.027344 460.667969 323.273438 C 462.652344 324.71875 466.226562 327.277344 468.378906 328.859375 C 461.191406 331.515625 448.511719 336.429688 440.863281 337.117188 C 439.46875 335.152344 436.460938 331.683594 434.839844 329.671875 C 429.828125 323.433594 424.621094 317.179688 419.527344 311.011719 Z M 419.527344 311.011719 " fill-opacity="1" fill-rule="nonzero"/><path fill="#f07c01" d="M 468.429688 328.859375 C 490.117188 342.117188 501.3125 350.167969 501.667969 350.695312 C 483.851562 349.761719 465.210938 345.574219 448.15625 340.246094 C 445.8125 339.511719 442.773438 338.597656 440.863281 337.117188 C 448.511719 336.429688 461.242188 331.515625 468.429688 328.859375 Z M 468.429688 328.859375 " fill-opacity="1" fill-rule="nonzero"/><path fill="#f07c01" d="M 507.863281 323.035156 L 507.632812 348.832031 C 499.429688 337.273438 492.480469 322.515625 487.738281 305.550781 C 492.523438 311.558594 501.6875 318.5 507.863281 323.035156 Z M 507.863281 323.035156 " fill-opacity="1" fill-rule="nonzero"/><path fill="#e26c01" d="M 526.980469 307.050781 C 522.453125 323.273438 517.046875 336.613281 507.644531 348.757812 L 507.730469 322.980469 C 512.757812 320.433594 522.800781 311.949219 526.980469 307.050781 Z M 526.980469 307.050781 " fill-opacity="1" fill-rule="nonzero"/><path fill="#fb9801" d="M 416.773438 493.554688 L 418.585938 492.089844 L 441.808594 508.425781 C 444.867188 510.578125 454.976562 517.199219 456.867188 519.824219 C 457.382812 521.546875 457.585938 525.929688 457.898438 527.996094 C 459.1875 536.421875 459.917969 545.0625 460.820312 553.542969 C 461.113281 556.335938 461.671875 559.0625 462.054688 561.832031 C 459.078125 564.164062 454.660156 566.613281 451.449219 568.664062 C 448.003906 570.859375 445.046875 572.964844 441.746094 575.320312 C 431.40625 567.273438 422.15625 557.917969 414.226562 547.488281 C 410.128906 541.925781 401.101562 517.832031 400.386719 510.847656 C 401.875 507.621094 413.554688 496.203125 416.773438 493.554688 Z M 416.773438 493.554688 " fill-opacity="1" fill-rule="nonzero"/><path fill="#f48801" d="M 456.867188 519.824219 C 457.382812 521.546875 457.585938 525.929688 457.898438 527.996094 C 459.1875 536.421875 459.917969 545.0625 460.820312 553.542969 C 461.113281 556.335938 461.671875 559.0625 462.054688 561.832031 C 459.078125 564.164062 454.660156 566.613281 451.449219 568.664062 C 448.003906 570.859375 445.046875 572.964844 441.746094 575.320312 C 431.40625 567.273438 422.15625 557.917969 414.226562 547.488281 C 417.246094 546.378906 428.460938 538.785156 430.605469 537.347656 C 434.121094 533.871094 451.476562 523.980469 456.867188 519.824219 Z M 456.867188 519.824219 " fill-opacity="1" fill-rule="nonzero"/><path fill="#ef7f01" d="M 430.953125 537.828125 L 462.054688 561.820312 L 441.703125 575.320312 Z M 430.953125 537.828125 " fill-opacity="1" fill-rule="nonzero"/><path fill="#fb9801" d="M 418.585938 492.089844 L 441.808594 508.425781 C 444.867188 510.578125 454.976562 517.199219 456.867188 519.824219 C 451.476562 523.980469 435.566406 534.039062 430.605469 537.347656 C 425.640625 525.898438 418.816406 501.257812 418.585938 492.089844 Z M 418.585938 492.089844 " fill-opacity="1" fill-rule="nonzero"/><path fill="#fb9801" d="M 512.097656 439.316406 C 524.964844 447.074219 541.066406 456.171875 554.523438 463.148438 C 549.132812 467.308594 516.257812 486.261719 511.296875 489.570312 C 511.296875 477.355469 512.328125 448.484375 512.097656 439.316406 Z M 512.097656 439.316406 " fill-opacity="1" fill-rule="nonzero"/><path fill="#feaa01" d="M 443.339844 365.414062 C 449.433594 368.449219 455.042969 371.246094 461.085938 374.453125 C 461.726562 375.863281 460.992188 379.570312 460.890625 381.273438 C 460.5625 386.988281 459.902344 392.699219 459.121094 398.367188 C 458.710938 401.378906 458.761719 404.511719 457.882812 407.46875 C 457.65625 408.222656 457.148438 408.472656 456.503906 408.859375 C 451.671875 411.769531 423.292969 430.375 421.519531 430.542969 C 415.859375 425.882812 410.492188 418.875 405.957031 413.058594 C 408.785156 406.230469 410.59375 398.820312 414.203125 392.210938 C 415.949219 389.015625 417.285156 385.3125 419.59375 382.433594 C 422.71875 378.753906 438.605469 367.785156 443.339844 365.414062 Z M 443.339844 365.414062 " fill-opacity="1" fill-rule="nonzero"/><path fill="#fec004" d="M 443.339844 365.414062 C 449.433594 368.449219 455.042969 371.246094 461.085938 374.453125 C 461.726562 375.863281 460.992188 379.570312 460.890625 381.273438 C 460.5625 386.988281 459.902344 392.699219 459.121094 398.367188 C 458.710938 401.378906 458.761719 404.511719 457.882812 407.46875 C 457.65625 408.222656 457.148438 408.472656 456.503906 408.859375 C 446.882812 404.246094 441.304688 400.5625 432.640625 394.871094 L 432.601562 394.722656 C 431.828125 394.40625 429.351562 391.996094 428.582031 391.28125 C 426.949219 390.097656 420.230469 384.101562 419.59375 382.433594 C 422.71875 378.753906 438.605469 367.785156 443.339844 365.414062 Z M 443.339844 365.414062 " fill-opacity="1" fill-rule="nonzero"/><path fill="#fb9801" d="M 461.085938 374.453125 C 461.726562 375.863281 460.992188 379.570312 460.890625 381.273438 C 460.5625 386.988281 459.902344 392.699219 459.121094 398.367188 C 458.710938 401.378906 458.761719 404.511719 457.882812 407.46875 C 457.65625 408.222656 457.148438 408.472656 456.503906 408.859375 C 446.882812 404.246094 441.304688 400.5625 432.640625 394.871094 L 432.601562 394.722656 L 433.296875 394.160156 C 433.714844 393.566406 436.046875 391.867188 436.816406 391.226562 C 441.136719 387.625 445.800781 384.15625 450.46875 381.007812 C 453.792969 378.765625 457.828125 376.773438 461.085938 374.453125 Z M 461.085938 374.453125 " fill-opacity="1" fill-rule="nonzero"/><path fill="#f48801" d="M 432.640625 394.871094 C 441.304688 400.5625 446.882812 404.246094 456.503906 408.859375 C 451.671875 411.769531 423.292969 430.375 421.519531 430.542969 C 423.132812 425.214844 424.453125 419.792969 426.050781 414.449219 C 428.078125 407.867188 430.277344 401.339844 432.640625 394.871094 Z M 432.640625 394.871094 " fill-opacity="1" fill-rule="nonzero"/><path fill="#f07e01" d="M 460.417969 461.945312 C 469.082031 467.640625 494.503906 482.882812 504.125 488.910156 C 499.292969 491.816406 460.417969 512.972656 460.417969 512.972656 C 460.425781 496.578125 460.015625 476.675781 460.417969 461.945312 Z M 460.417969 461.945312 " fill-opacity="1" fill-rule="nonzero"/><path fill="#f48c03" d="M 511.296875 489.570312 C 520.515625 484.347656 545.527344 468.859375 554.714844 462.996094 C 554.667969 468.632812 554.714844 512.832031 554.714844 512.832031 C 539.929688 505.886719 523.640625 497.621094 511.296875 489.570312 Z M 511.296875 489.570312 " fill-opacity="1" fill-rule="nonzero"/><path fill="#f38302" d="M 554.035156 373.660156 C 556.039062 372.570312 571.957031 365.710938 572.691406 365.960938 C 575.855469 367.039062 593.84375 380.261719 595.703125 382.644531 C 600.070312 388.636719 607.128906 405.933594 608.835938 413.328125 C 603.164062 419.34375 599.867188 424.453125 593.390625 430.738281 C 589.601562 428.757812 585.066406 425.367188 581.308594 423 L 559.382812 409.421875 C 558.703125 408.992188 557.769531 408.164062 557.128906 407.625 C 556.5625 405.449219 556.5625 402.773438 556.269531 400.503906 C 555.433594 394.019531 555.15625 387.484375 554.550781 380.980469 C 554.316406 378.4375 553.957031 376.234375 554.035156 373.660156 Z M 554.035156 373.660156 " fill-opacity="1" fill-rule="nonzero"/><path fill="#e26c01" d="M 584.039062 394.007812 C 592.703125 399.703125 600.277344 406.1875 608.835938 413.183594 C 605.59375 417.417969 594.925781 430.566406 593.15625 430.738281 C 590.410156 417.769531 589.40625 412.324219 584.039062 394.007812 Z M 584.039062 394.007812 " fill-opacity="1" fill-rule="nonzero"/><path fill="#fb9801" d="M 554.035156 373.660156 C 556.039062 372.570312 571.957031 365.710938 572.691406 365.960938 C 575.855469 367.039062 593.84375 380.261719 595.703125 382.644531 C 594.113281 384.210938 592.003906 386.027344 590.339844 387.640625 C 588.386719 389.542969 585.261719 392.96875 583.078125 394.484375 C 574.816406 400.210938 566.03125 403.832031 559.382812 409.421875 C 558.703125 408.992188 557.769531 408.164062 557.128906 407.625 C 556.5625 405.449219 556.5625 402.773438 556.269531 400.503906 C 555.433594 394.019531 555.15625 387.484375 554.550781 380.980469 C 554.316406 378.4375 553.957031 376.234375 554.035156 373.660156 Z M 554.035156 373.660156 " fill-opacity="1" fill-rule="nonzero"/><path fill="#feaa01" d="M 583.640625 394.007812 C 575.996094 400.738281 565.683594 409.421875 559.8125 409.421875 C 558.402344 409.421875 557.84375 407.945312 557.011719 407.582031 C 555.1875 397.070312 553.777344 384.121094 553.390625 373.761719 L 553.488281 373.648438 C 565.660156 380.269531 574.109375 385.601562 583.640625 394.007812 Z M 583.640625 394.007812 " fill-opacity="1" fill-rule="nonzero"/><path fill="#fb9801" d="M 595.765625 235.335938 L 597.964844 234.511719 C 596.40625 237.429688 594.609375 240.347656 593.125 243.257812 C 588.679688 251.964844 584.140625 261.324219 580.242188 270.28125 C 578.144531 274.601562 576.613281 278.890625 574.652344 282.949219 C 560.609375 290.515625 547.785156 300.15625 536.621094 311.550781 C 534.1875 314.0625 531.910156 317.175781 529.421875 319.808594 C 532.582031 308.863281 535.375 297.226562 537.132812 285.953125 C 537.859375 283.074219 537.34375 269.699219 538.460938 267.867188 C 542.222656 261.699219 558.839844 251.308594 564.738281 248.609375 C 565.445312 248.078125 568.875 246.289062 569.796875 245.832031 C 578.066406 241.738281 586.753906 237.453125 595.765625 235.335938 Z M 595.765625 235.335938 " fill-opacity="1" fill-rule="nonzero"/><path fill="#e26c01" d="M 558.550781 292.828125 C 546.605469 302.203125 539.320312 311.511719 529.421875 319.53125 C 537.761719 304.195312 547.40625 289.023438 557.476562 274.019531 C 558.035156 277.976562 558.65625 285.523438 558.550781 292.828125 Z M 558.550781 292.828125 " fill-opacity="1" fill-rule="nonzero"/><path fill="#feaa01" d="M 597.964844 234.511719 C 596.40625 237.429688 594.609375 240.347656 593.125 243.257812 C 588.679688 251.964844 584.140625 261.324219 580.242188 270.28125 C 572.234375 273.089844 565.589844 274.117188 557.476562 274.011719 C 557.492188 268.304688 560.0625 262.691406 561.746094 257.324219 C 562.589844 254.636719 563.59375 251.132812 564.738281 248.609375 C 565.445312 248.078125 568.875 246.289062 569.796875 245.832031 C 582.003906 240.152344 586.460938 238.117188 597.964844 234.511719 Z M 597.964844 234.511719 " fill-opacity="1" fill-rule="nonzero"/><path fill="#feaa01" d="M 628.546875 276.539062 C 626.988281 279.457031 611.074219 284.125 609.585938 287.035156 C 600.546875 297.796875 586.441406 313.265625 572.644531 313.558594 C 572.078125 305.746094 575.03125 294.46875 577.71875 287.863281 C 593.503906 280.792969 611.878906 276.703125 628.546875 276.539062 Z M 628.546875 276.539062 " fill-opacity="1" fill-rule="nonzero"/><path fill="#fb9801" d="M 597.964844 234.511719 C 596.40625 237.429688 594.609375 240.347656 593.125 243.257812 C 588.679688 251.964844 584.140625 261.324219 580.242188 270.28125 C 578.222656 271.140625 575.714844 271.921875 573.886719 272.636719 C 568.757812 274.648438 562.886719 274.796875 557.476562 274.011719 C 558.269531 273.261719 559.253906 272.527344 560.089844 271.785156 C 568.242188 264.558594 575.761719 256.332031 583.394531 248.5625 C 586.019531 245.9375 588.660156 243.328125 591.316406 240.734375 C 592.605469 239.492188 593.957031 238.222656 595.222656 236.957031 Z M 597.964844 234.511719 " fill-opacity="1" fill-rule="nonzero"/><path fill="#fb9801" d="M 628.546875 276.539062 C 614.308594 288.730469 601.316406 305.644531 592.617188 314.800781 C 588.597656 315.25 577.824219 313.636719 572.644531 313.558594 C 587.550781 299.882812 611.503906 282.703125 628.546875 276.539062 Z M 628.546875 276.539062 " fill-opacity="1" fill-rule="nonzero"/><path fill="#fec004" d="M 417.671875 234.554688 C 419.164062 235.332031 421.714844 235.898438 423.417969 236.394531 C 425.710938 237.039062 427.96875 237.800781 430.1875 238.667969 C 438.332031 241.863281 442.90625 244.621094 450.414062 248.210938 C 456.992188 251.609375 461.617188 254.570312 467.507812 259.191406 C 469.132812 260.46875 473.984375 264.710938 475.34375 265.582031 C 477.097656 266.945312 476.128906 267.75 476.351562 270.238281 C 476.875 276.078125 477.300781 281.210938 477.984375 287.125 C 479.273438 298.253906 483.125 308.804688 485.417969 319.53125 C 472.351562 303.589844 460.269531 293.839844 442.539062 283.769531 C 440.644531 282.691406 437.71875 273.933594 436.179688 270.949219 C 435.347656 268.542969 433.425781 265.296875 432.394531 262.804688 C 428.261719 252.78125 423.1875 243.84375 417.671875 234.554688 Z M 417.671875 234.554688 " fill-opacity="1" fill-rule="nonzero"/><path fill="#f99102" d="M 477.308594 267.316406 C 476.789062 271.816406 477.753906 281.183594 478.390625 287.007812 C 479.679688 298.136719 483.125 308.804688 485.417969 319.53125 C 472.351562 303.589844 460.269531 293.839844 442.539062 283.769531 C 440.644531 282.691406 437.71875 273.933594 436.179688 270.949219 C 448.292969 271.660156 452.0625 272.664062 459.070312 273.480469 Z M 477.308594 267.316406 " fill-opacity="1" fill-rule="nonzero"/><path fill="#f07c01" d="M 459.089844 273.523438 C 473.117188 291.796875 485.066406 319.003906 485.417969 319.53125 C 468.378906 301.011719 467.09375 299.75 451.320312 289.011719 C 455.566406 283.210938 456.429688 278.859375 459.089844 273.523438 Z M 459.089844 273.523438 " fill-opacity="1" fill-rule="nonzero"/><path fill="#f98a02" d="M 469.207031 309.980469 C 487.738281 325.613281 501.894531 350.148438 501.480469 350.613281 C 486.648438 339.335938 484.152344 339.597656 468.378906 328.859375 C 471.265625 323.058594 470.101562 315.316406 469.207031 309.980469 Z M 469.207031 309.980469 " fill-opacity="1" fill-rule="nonzero"/><path fill="#f07c01" d="M 538.359375 267.867188 C 548.109375 272.433594 551.214844 273.523438 557.476562 274.019531 C 547.335938 288.984375 537.445312 305.550781 529.421875 319.53125 C 531.21875 313.628906 537.464844 274.019531 538.359375 267.867188 Z M 547.441406 309.152344 C 548.652344 316.796875 549.871094 323.300781 553.746094 327.902344 C 543.605469 342.871094 529.421875 344.148438 514.75 350.578125 C 517.3125 344.015625 540.140625 314.648438 547.441406 309.152344 Z M 547.441406 309.152344 " fill-opacity="1" fill-rule="nonzero"/><path fill="#e26c01" d="M 554.023438 327.902344 C 562.84375 334.097656 568.429688 335.292969 573.769531 337.648438 C 560.996094 345.527344 528.84375 350.113281 514.75 350.429688 C 526.332031 344.523438 546.789062 333.535156 554.023438 327.902344 Z M 554.023438 327.902344 " fill-opacity="1" fill-rule="nonzero"/><path fill="#f07c01" d="M 557.238281 274.019531 C 567.679688 274.019531 572.992188 274.019531 579.253906 272.578125 C 576.304688 279.875 576.339844 280.890625 574.613281 283.117188 C 574.613281 283.117188 566.339844 288.652344 558.515625 292.828125 C 557.476562 287.0625 556.34375 280.167969 557.238281 274.019531 Z M 557.238281 274.019531 " fill-opacity="1" fill-rule="nonzero"/><path fill="#f07c01" d="M 572.574219 313.558594 C 583.015625 313.558594 586.359375 314.648438 592.617188 314.648438 C 587.800781 321.378906 576.910156 335.585938 573.769531 337.734375 C 573.769531 337.734375 559.710938 332.917969 554.023438 327.902344 C 562 322.851562 567.410156 318.886719 572.574219 313.558594 Z M 572.574219 313.558594 " fill-opacity="1" fill-rule="nonzero"/><path fill="#feaa01" d="M 450.414062 248.210938 C 456.992188 251.609375 462.136719 254.28125 468.027344 258.902344 C 469.652344 260.179688 476.410156 266.101562 477.25 267.257812 L 459.070312 273.480469 C 457.988281 271.652344 456.894531 268 456.132812 265.945312 C 454.003906 260.210938 452.496094 253.886719 450.414062 248.210938 Z M 450.414062 248.210938 " fill-opacity="1" fill-rule="nonzero"/><path fill="#feaa01" d="M 417.777344 234.945312 L 459.089844 273.523438 L 436.148438 270.972656 C 429.699219 258.605469 425.539062 248.375 417.777344 234.945312 Z M 417.777344 234.945312 " fill-opacity="1" fill-rule="nonzero"/><path fill="#feaa01" d="M 388.382812 277.238281 C 408.488281 287.527344 427.789062 299.992188 446.972656 313.605469 C 438.722656 314.75 430.003906 314.40625 421.519531 313.605469 C 411.808594 302.324219 397.597656 286.316406 388.382812 277.238281 Z M 388.382812 277.238281 " fill-opacity="1" fill-rule="nonzero"/><path fill="#f48801" d="M 611.496094 420.386719 L 612.035156 420.691406 C 616.941406 433.335938 620.140625 449.164062 621.996094 462.6875 C 621.960938 464.175781 621.828125 465.84375 621.707031 467.3125 C 620.703125 479.214844 618.597656 491.148438 617.121094 503.003906 C 615.558594 501.199219 614.21875 500.050781 612.59375 498.035156 C 609.984375 494.933594 606.523438 491.882812 603.664062 488.996094 C 602.421875 487.742188 600.796875 486.359375 599.792969 484.972656 C 599.914062 468.726562 597.859375 452.011719 597.835938 435.851562 C 597.835938 436.132812 610.113281 422.402344 611.382812 420.550781 Z M 611.496094 420.386719 " fill-opacity="1" fill-rule="nonzero"/><path fill="#f07c01" d="M 599.851562 485.660156 L 597.835938 436.425781 L 622.136719 462.664062 Z M 599.851562 485.660156 " fill-opacity="1" fill-rule="nonzero"/><path fill="#feaa01" d="M 403.074219 420.367188 C 403.800781 420.804688 404.976562 422.324219 405.507812 423.039062 C 408.6875 427.328125 412.570312 430.90625 416.097656 434.882812 C 416.902344 435.792969 416.976562 435.929688 417 437.203125 C 417.097656 442.179688 416.753906 447.15625 416.511719 452.128906 L 415.878906 467.695312 C 415.597656 473.621094 415.824219 479 415.402344 485.113281 C 414.699219 485.925781 412.015625 488.238281 411.078125 489.113281 C 407.949219 492.039062 405.390625 494.625 402.601562 497.859375 C 402.386719 498.320312 398.859375 502.144531 398.3125 502.761719 C 397.125 497.84375 396.445312 490.089844 395.695312 484.851562 C 394.800781 478.601562 393.210938 469.332031 393.234375 463.121094 C 393.484375 454.867188 395.742188 446.65625 397.546875 438.667969 C 399.050781 432.003906 400.566406 426.6875 403.074219 420.367188 Z M 403.074219 420.367188 " fill-opacity="1" fill-rule="nonzero"/><path fill="#f48801" d="M 466.601562 569.023438 C 467.96875 569.425781 469.226562 570.351562 470.375 571.195312 C 477.992188 576.800781 485.683594 582.332031 493.238281 588.015625 C 497.066406 590.898438 500.71875 594.003906 504.550781 596.871094 C 499.414062 596.722656 492.480469 595.667969 487.1875 595.023438 C 484.839844 594.535156 481.171875 594.34375 479.023438 593.738281 C 471.394531 591.597656 463.863281 588.3125 456.777344 584.789062 C 453.949219 583.382812 450.652344 581.9375 448.039062 580.253906 C 449.808594 579.152344 451.753906 577.308594 453.5625 576.242188 C 457.722656 573.78125 462.304688 571.207031 466.601562 569.023438 Z M 466.601562 569.023438 " fill-opacity="1" fill-rule="nonzero"/><path fill="#e26c01" d="M 549.011719 568.78125 C 551.257812 568.953125 564.839844 578.074219 567.121094 580.058594 C 557.964844 585.226562 546.675781 590.640625 536.59375 593.6875 C 534.695312 594.261719 529.664062 594.925781 527.582031 595.1875 C 523.316406 596.0625 514.882812 596.792969 510.605469 596.863281 L 537.28125 577.757812 C 541.109375 574.960938 545.261719 571.359375 549.011719 568.78125 Z M 549.011719 568.78125 " fill-opacity="1" fill-rule="nonzero"/><path fill="#fb9801" d="M 541.832031 352.804688 C 545.191406 352.347656 562.234375 359.054688 565.660156 361.570312 C 562.824219 363.035156 553.125 367.839844 550.195312 368.460938 C 547.644531 367.6875 541.210938 364.484375 538.492188 363.324219 C 533.222656 361.078125 527.78125 358.898438 522.589844 356.527344 C 528.699219 355.316406 536.191406 354.445312 541.832031 352.804688 Z M 541.832031 352.804688 " fill-opacity="1" fill-rule="nonzero"/><path fill="#f48801" d="M 541.832031 352.804688 C 545.191406 352.347656 562.234375 359.054688 565.660156 361.570312 C 562.824219 363.035156 553.125 367.839844 550.195312 368.460938 C 551.320312 365.398438 545.6875 356.558594 543.730469 354.066406 C 543.417969 353.667969 542.296875 353.058594 541.832031 352.804688 Z M 541.832031 352.804688 " fill-opacity="1" fill-rule="nonzero"/><path fill="#feaa01" d="M 472.472656 352.996094 C 474.042969 352.722656 489.128906 356.164062 491.796875 356.722656 C 484.230469 360.820312 475.964844 363.847656 468.359375 367.582031 C 467.527344 367.960938 466.3125 368.398438 465.433594 368.746094 C 463.027344 367.902344 451.324219 362.960938 450.402344 361.554688 C 452.082031 359.296875 468.652344 354.109375 472.472656 352.996094 Z M 472.472656 352.996094 " fill-opacity="1" fill-rule="nonzero"/><path fill="#f49d01" d="M 472.472656 352.980469 C 475.832031 352.523438 487.738281 355.328125 491.792969 356.792969 C 488.960938 358.257812 468.347656 368.125 465.421875 368.746094 C 466.074219 366.542969 473.464844 353.585938 472.472656 352.980469 Z M 472.472656 352.980469 " fill-opacity="1" fill-rule="nonzero"/><path fill="#f07c01" d="M 584.039062 394.007812 C 590.609375 387.6875 591.964844 386.269531 595.703125 382.8125 C 599.445312 388.410156 605.226562 400.644531 608.835938 413.570312 C 597.378906 405.128906 595.703125 402.5625 584.039062 394.007812 Z M 584.039062 394.007812 " fill-opacity="1" fill-rule="nonzero"/><path fill="#f48801" d="M 393.234375 464.175781 C 397.976562 468.824219 411.964844 482.105469 415.441406 485.28125 C 410.476562 489.105469 400.386719 499.714844 398.304688 502.761719 C 395.941406 494.078125 393.234375 472.625 393.234375 464.175781 Z M 393.234375 464.175781 " fill-opacity="1" fill-rule="nonzero"/><path fill="#fb9801" d="M 416.851562 435.988281 C 416.851562 435.988281 417.121094 438.621094 417.015625 442.695312 C 416.71875 454.410156 415.765625 478.042969 415.441406 485.28125 C 407.285156 478.472656 400.773438 470.898438 393.269531 464.351562 L 393.234375 464.207031 L 393.925781 463.640625 C 401.933594 453.457031 416.851562 435.988281 416.851562 435.988281 Z M 416.851562 435.988281 " fill-opacity="1" fill-rule="nonzero"/><path fill="#e26c01" d="M 599.851562 485.046875 C 608.835938 475.5 612.753906 472.945312 621.996094 462.664062 C 622.84375 478.257812 619.742188 491.375 617.121094 503.003906 Z M 599.851562 485.046875 " fill-opacity="1" fill-rule="nonzero"/><path fill="#feaa01" d="M 418.40625 492.089844 C 420.972656 506.761719 425.898438 524.28125 430.800781 537.347656 C 415.023438 526.253906 413.0625 526.15625 400.386719 510.589844 C 407.132812 502.761719 412.261719 497.121094 418.40625 492.089844 Z M 418.40625 492.089844 " fill-opacity="1" fill-rule="nonzero"/><path fill="#feaa01" d="M 507.820312 494.417969 L 507.914062 545.734375 L 464.136719 519.824219 C 473.097656 512.972656 493.0625 502.097656 507.820312 494.417969 Z M 507.820312 494.417969 " fill-opacity="1" fill-rule="nonzero"/><path fill="#fb9801" d="M 551.125 520.074219 L 507.914062 545.734375 L 507.628906 494.417969 C 518.128906 499.953125 544.3125 513.347656 551.125 520.074219 Z M 551.125 520.074219 " fill-opacity="1" fill-rule="nonzero"/><path fill="#e26c01" d="M 545.261719 563.96875 L 507.914062 590.273438 L 507.628906 545.5625 C 518.128906 551.101562 538.371094 561.394531 545.261719 563.96875 Z M 545.261719 563.96875 " fill-opacity="1" fill-rule="nonzero"/><path fill="#f07c01" d="M 548.773438 568.78125 C 547.308594 573.058594 537.8125 588.941406 536.347656 593.734375 C 529.378906 595.292969 521.449219 596.863281 510.660156 596.863281 C 515.929688 593.070312 540.789062 574.988281 548.773438 568.78125 Z M 548.773438 568.78125 " fill-opacity="1" fill-rule="nonzero"/><path fill="#f07c01" d="M 466.621094 569.023438 C 468.832031 573.644531 477.363281 588.164062 479.535156 593.878906 C 485.980469 595.292969 496.167969 596.246094 504.371094 597.113281 C 498.882812 592.074219 470.839844 570.292969 466.621094 569.023438 Z M 466.621094 569.023438 " fill-opacity="1" fill-rule="nonzero"/></svg>